<?xml version="1.0" encoding="UTF-8" standalone="no"?>
<!-- Created with Inkscape (http://www.inkscape.org/) -->

<svg
   xmlns:dc="http://purl.org/dc/elements/1.1/"
   xmlns:cc="http://creativecommons.org/ns#"
   xmlns:rdf="http://www.w3.org/1999/02/22-rdf-syntax-ns#"
   xmlns:svg="http://www.w3.org/2000/svg"
   xmlns="http://www.w3.org/2000/svg"
   xmlns:sodipodi="http://sodipodi.sourceforge.net/DTD/sodipodi-0.dtd"
   xmlns:inkscape="http://www.inkscape.org/namespaces/inkscape"
   width="100mm"
   height="100mm"
   viewBox="0 0 354.33072 354.33072"
   id="svg2"
   version="1.1"
   inkscape:version="0.91 r13725"
   sodipodi:docname="test003.svg">
  <sodipodi:namedview
     inkscape:snap-smooth-nodes="true"
     inkscape:object-nodes="true"
     inkscape:snap-others="false"
     inkscape:snap-nodes="true"
     inkscape:object-paths="false"
     inkscape:snap-page="false"
     inkscape:snap-grids="true"
     inkscape:snap-global="true"
     inkscape:snap-bbox="false"
     id="base"
     pagecolor="#ffffff"
     bordercolor="#666666"
     borderopacity="1.0"
     inkscape:pageopacity="0.0"
     inkscape:pageshadow="2"
     inkscape:zoom="1"
     inkscape:cx="272.1332"
     inkscape:cy="183.66341"
     inkscape:document-units="mm"
     inkscape:current-layer="layer1"
     showgrid="true"
     units="mm"
     inkscape:window-width="851"
     inkscape:window-height="651"
     inkscape:window-x="11"
     inkscape:window-y="10"
     inkscape:window-maximized="0">
    <inkscape:grid
       type="xygrid"
       id="grid4136"
       spacingx="17.716535"
       spacingy="17.716535"
       units="mm"
       empspacing="2" />
  </sodipodi:namedview>
  <defs
     id="defs4" />
  <metadata
     id="metadata7">
    <rdf:RDF>
      <cc:Work
         rdf:about="">
        <dc:format>image/svg+xml</dc:format>
        <dc:type
           rdf:resource="http://purl.org/dc/dcmitype/StillImage" />
        <dc:title></dc:title>
      </cc:Work>
    </rdf:RDF>
  </metadata>
  <g
     inkscape:label="Calque 1"
     inkscape:groupmode="layer"
     id="layer1"
     transform="translate(0,-698.03144)">
    <path
       style="fill:#ffd5d5;stroke:#000000;stroke-width:1.0629921;stroke-miterlimit:4;stroke-dasharray:none;stroke-opacity:1"
       d="m 0,910.62983 0,141.73227 177.166,0 0,-141.73227 z m 88.582025,17.71679 c 22.502305,0.0251 42.550225,14.21811 50.050765,35.4336 l 20.81641,0 0,35.43164 -20.82422,0 c -7.49959,21.21264 -27.54351,35.40504 -50.042955,35.43344 -22.50232,-0.025 -42.550235,-14.2181 -50.050775,-35.43344 l -20.814451,0 0,-35.43164 20.824221,0 c 7.49934,-21.21212 27.542265,-35.40434 50.041005,-35.4336 z"
       id="rect4147"
       inkscape:connector-curvature="0"
       sodipodi:nodetypes="cccccccccccccccc"
       scad-header="linear_extrude(10)" />
    <path
       style="fill:#ffd5d5;stroke:#000000;stroke-width:1.0629921;stroke-miterlimit:4;stroke-dasharray:none;stroke-opacity:1"
       d="m 88.582675,786.61412 a 53.149605,53.149605 0 0 0 -50.041019,35.43359 l -20.82421,0 0,35.43164 20.81445,0 a 53.149605,53.149605 0 0 0 50.050779,35.43359 53.149605,53.149605 0 0 0 50.042975,-35.43359 l 20.82422,0 0,-35.43164 -20.81641,0 A 53.149605,53.149605 0 0 0 88.582675,786.61412 Z m 0,35.43359 a 17.716536,17.716536 0 0 1 17.716795,17.71485 17.716536,17.716536 0 0 1 -17.716795,17.71679 17.716536,17.716536 0 0 1 -17.7168,-17.71679 17.716536,17.716536 0 0 1 17.7168,-17.71485 z"
       id="rect3351"
       inkscape:connector-curvature="0"
       scad-header="translate([0,-40,-5]) linear_extrude(20)" />
  </g>
</svg>
